<svg width="512" height="512" viewBox="0 0 512 512" fill="none" xmlns="http://www.w3.org/2000/svg">
<g clip-path="url(#clip0_23_10)">
<path d="M471.371 389.7H-1L39.6172 122.3H512L471.371 389.7ZM153.459 159.013C96.9742 159.013 55.6768 202.444 55.6768 255.464V255.994L55.6914 256.008C55.6914 311.148 95.6576 351.916 153.731 351.916C187.828 351.915 214.21 338.588 233.392 322.341V242.882L153.746 242.81L169.592 276.779H193.697V303.417C183.305 310.875 169.978 314.612 155.062 314.612C122.025 314.612 98.5781 289.561 98.5781 255.464V254.935C98.5781 223.243 122.282 196.861 152.128 196.861C173.714 196.861 186.497 203.775 200.883 215.77L226.721 184.593C207.282 168.074 187.026 159.013 153.459 159.013ZM427.511 188.286C407.685 167.429 379.843 156.88 350.384 158.87C314.841 161.26 284.194 183.777 270.424 214.266C254.778 248.921 260.389 287.6 284.294 315.814C301.414 336.04 324.804 348.437 351.987 349.882H352.002C402.36 352.559 445.389 317.431 453.005 268.347C457.571 238.931 447.336 209.142 427.511 188.286ZM312.88 230.513C326.021 204.676 367.075 193.854 390.093 214.839C407.241 230.471 412.881 255.864 403.233 277.107C396.806 291.25 383.966 299.968 368.735 303.675V303.689C349.626 308.341 331.503 302.315 319.637 287.356C306.854 271.238 303.461 249.036 312.88 230.513Z" fill="#621E67"/>
</g>
<defs>
<clipPath id="clip0_23_10">
<rect width="512" height="512" fill="white"/>
</clipPath>
</defs>
</svg>
